:FULLY-SPECIFIED
:FORCE-ALL-JOINTS-BE-3DOF
:DEGREES
510
root 5.51282 16.4525 -5.46444 -134.775 88.1537 -140.574
lfemur -24.5006 -16.2108 -22.1279
ltibia 47.4666 -0 0
lfoot -25.7971 -5.88932 -0.0934347
ltoes 13.5008 -0 0
rfemur -57.7464 5.56444 8.74745
rtibia 68.0398 -0 0
rfoot 7.92364 10.5844 0.000408405
rtoes -16.8012 0 0
lowerback 6.53942 -0.371541 -1.70019
upperback 0.697674 -0.540587 1.65724
thorax -2.90503 -0.23308 2.70964
lowerneck -8.80667 -10.5737 -2.48659
upperneck 10.0552 -14.1454 2.35522
head 4.80338 -6.8904 0.136062
lclavicle -6.67033e-16 -6.94421e-15 2.4276e-32
lhumerus -46.2895 -33.9181 114.002
lradius 56.1179 -0 0
lwrist 6.40786 0 0
lhand 6.07682 0.398925 0.0618576
lfingers 7.12502 -0 0
lthumb 31.3752 27.5017 0.00200314
rclavicle -6.67033e-16 -6.94421e-15 2.4276e-32
rhumerus -28.919 42.7945 -88.4085
rradius 101.324 -0 0
rwrist 13.7326 0 0
rhand 1.0346 -13.8498 0.135756
rfingers 7.12502 -0 0
rthumb 26.5653 -41.7832 0.176996
511
root 5.52166 16.4517 -5.43909 -133.922 88.1564 -139.716
lfemur -24.4168 -15.8855 -22.1081
ltibia 47.4359 -0 0
lfoot -25.8688 -5.66315 -0.103843
ltoes 13.337 -0 0
rfemur -57.5757 5.36868 8.8566
rtibia 67.8729 -0 0
rfoot 7.92012 10.5641 0.000453854
rtoes -16.8696 0 0
lowerback 6.51326 -0.38139 -1.74939
upperback 0.713313 -0.5565 1.6625
thorax -2.87166 -0.241157 2.74319
lowerneck -8.76598 -10.6041 -2.50159
upperneck 10.0887 -14.1916 2.40754
head 4.81418 -6.91043 0.150944
lclavicle -7.00716e-16 -6.81832e-15 2.69775e-32
lhumerus -45.9969 -33.8971 113.625
lradius 56.0839 -0 0
lwrist 6.6313 0 0
lhand 5.76694 0.364453 0.0687536
lfingers 7.12502 -0 0
lthumb 31.0777 27.5006 0.00222641
rclavicle -7.00716e-16 -6.81832e-15 2.69775e-32
rhumerus -28.1006 42.5754 -88.0061
rradius 101.717 -0 0
rwrist 13.0183 0 0
rhand 0.697977 -13.9193 0.150896
rfingers 7.12502 -0 0
rthumb 26.2415 -41.8774 0.196734
512
root 5.5305 16.4508 -5.41375 -133.068 88.1588 -138.856
lfemur -24.333 -15.5603 -22.0878
ltibia 47.4053 -0 0
lfoot -25.9405 -5.43697 -0.113968
ltoes 13.1732 -0 0
rfemur -57.4055 5.1726 8.96512
rtibia 67.7059 -0 0
rfoot 7.91661 10.5438 0.000498057
rtoes -16.938 0 0
lowerback 6.4871 -0.391262 -1.79857
upperback 0.728949 -0.572415 1.66776
thorax -2.8383 -0.249255 2.77674
lowerneck -8.72528 -10.6346 -2.51661
upperneck 10.1222 -14.2378 2.45983
head 4.82497 -6.93045 0.165823
lclavicle -7.34399e-16 -6.69242e-15 2.96049e-32
lhumerus -45.7046 -33.8744 113.249
lradius 56.0498 -0 0
lwrist 6.85474 0 0
lhand 5.45706 0.329944 0.075463
lfingers 7.12502 -0 0
lthumb 30.7802 27.4994 0.00244364
rclavicle -7.34399e-16 -6.69242e-15 2.96049e-32
rhumerus -27.2872 42.352 -87.6094
rradius 102.11 -0 0
rwrist 12.304 0 0
rhand 0.361332 -13.9888 0.165628
rfingers 7.12502 -0 0
rthumb 25.9176 -41.9717 0.215939
513
root 5.53934 16.45 -5.38841 -132.211 88.1607 -137.995
lfemur -24.2492 -15.2351 -22.0671
ltibia 47.3746 -0 0
lfoot -26.0123 -5.21077 -0.12381
ltoes 13.0094 -0 0
rfemur -57.2356 4.9762 9.07303
rtibia 67.5389 -0 0
rfoot 7.91309 10.5235 0.000541016
rtoes -17.0063 0 0
lowerback 6.46096 -0.401156 -1.84776
upperback 0.744585 -0.588331 1.67301
thorax -2.80495 -0.257372 2.81028
lowerneck -8.68457 -10.665 -2.53165
upperneck 10.1557 -14.2841 2.51211
head 4.83576 -6.95048 0.180699
lclavicle -7.68082e-16 -6.56652e-15 3.21583e-32
lhumerus -45.4126 -33.8501 112.873
lradius 56.0158 -0 0
lwrist 7.07819 0 0
lhand 5.14718 0.295399 0.0819857
lfingers 7.12502 -0 0
lthumb 30.4827 27.4982 0.00265482
rclavicle -7.68082e-16 -6.56652e-15 3.21583e-32
rhumerus -26.4788 42.1246 -87.2184
rradius 102.503 -0 0
rwrist 11.5897 0 0
rhand 0.0246699 -14.0585 0.179951
rfingers 7.12502 -0 0
rthumb 25.5937 -42.0661 0.234611
